<svg xmlns="http://www.w3.org/2000/svg" width="120" height="50" fill="#f50000"  xmlns:v="https://vecta.io/nano"><path d="M29.823 1.175v17.321l2.928-1.657V1.175h-2.928zm4.497.008v17.144l2.703-1.496V1.183H34.32z"/><path d="M34.296 8.455h-1.553v2.808h1.553V8.455zM19.63 3.411h8.262v2.663l-4.2-.66-4.063.66V3.411z"/><path d="M23.114 2.768l2.035-1.15v1.794h-3.065l1.03-.644zm.652 2.63c-2.639 0-4.771 2.776-4.771 6.203s2.14 6.203 4.771 6.203 4.771-2.775 4.771-6.203-2.14-6.203-4.771-6.203zm0 9.381c-1.351 0-2.446-1.424-2.446-3.178s1.094-3.178 2.446-3.178 2.446 1.424 2.446 3.178-1.102 3.178-2.446 3.178zm-8.135-3.91l2.993-2.824V6.806H14.77l.861 4.063z"/><path d="M16.742 9.799l-1.094 1.07h-2.132V1.15h3.17l.056 8.648zM5.028 3.379C2.269 3.379 0 4.827 0 7.128c0 2.526 2.237 4.039 4.996 4.039s5.06-1.73 5.06-4.039-2.269-3.749-5.028-3.749zM4.996 9.55c-1.231 0-2.228-1.046-2.228-2.341s.998-2.341 2.228-2.341 2.228 1.046 2.228 2.341S6.227 9.55 4.996 9.55zm-.33-8.4L6.701 0v1.794H3.636l1.03-.644z"/><path d="M.185 1.786h9.445v2.253l-4.795-.491-4.65.491V1.786z"/><path fill-rule="evenodd" d="M15.704 14.658c0 2.773-2.871 5.02-6.412 5.02s-6.412-2.248-6.412-5.02 2.871-5.02 6.412-5.02 6.412 2.248 6.412 5.02zm-3.395 0c0 1.48-1.351 2.679-3.017 2.679s-3.017-1.199-3.017-2.679 1.351-2.679 3.017-2.679 3.017 1.2 3.017 2.679z"/><path d="M47.812 1.609c-2.164-1.504-5.503-.434-7.458 2.381s-1.778 6.315.394 7.82c2.164 1.505 5.503.434 7.458-2.381 1.947-2.816 1.77-6.315-.394-7.82zM42.47 9.324c-1.11-.772-1.199-2.558-.201-4.006.998-1.44 2.703-1.987 3.813-1.215s1.199 2.558.201 4.006c-.998 1.432-2.703 1.979-3.813 1.215z"/><path d="M48.938 8.085l-5.27 10.483-1.923-1.963 3.677-7.08 3.516-1.44zM59.92 1.609c-2.164-1.504-5.503-.434-7.458 2.381s-1.778 6.315.394 7.82 5.503.434 7.458-2.381c1.947-2.816 1.778-6.315-.394-7.82zm-5.342 7.715c-1.11-.772-1.199-2.558-.201-4.006s2.711-1.987 3.821-1.223c1.11.772 1.199 2.558.201 4.006-.998 1.44-2.711 1.987-3.821 1.223z"/><path d="M60.886 8.487L55.624 20l-1.963-1.963 3.709-8.512 3.516-1.038z"/></svg>